<mxfile host="app.diagrams.net" modified="2022-12-28T05:51:28.020Z" agent="5.0 (X11)" etag="94yKIksOxgjjdw7--YpY" version="20.7.4" type="github">
  <diagram id="AbTQmVC55lPCEFAPiU2C" name="Page-1">
    <mxGraphModel dx="1434" dy="757" grid="1" gridSize="10" guides="1" tooltips="1" connect="1" arrows="1" fold="1" page="1" pageScale="1" pageWidth="850" pageHeight="1100" math="0" shadow="0">
      <root>
        <mxCell id="0" />
        <mxCell id="1" parent="0" />
        <mxCell id="rfZ32k7XFtMw9jHrx5v--1" value="" style="rounded=0;whiteSpace=wrap;html=1;fontFamily=Georgia;" vertex="1" parent="1">
          <mxGeometry x="120" y="80" width="480" height="560" as="geometry" />
        </mxCell>
        <mxCell id="rfZ32k7XFtMw9jHrx5v--10" style="edgeStyle=orthogonalEdgeStyle;rounded=0;orthogonalLoop=1;jettySize=auto;html=1;exitX=0.5;exitY=0.5;exitDx=0;exitDy=0;exitPerimeter=0;entryX=0;entryY=0.5;entryDx=0;entryDy=0;fontFamily=Georgia;" edge="1" parent="1" source="rfZ32k7XFtMw9jHrx5v--2" target="rfZ32k7XFtMw9jHrx5v--9">
          <mxGeometry relative="1" as="geometry" />
        </mxCell>
        <mxCell id="rfZ32k7XFtMw9jHrx5v--12" style="edgeStyle=orthogonalEdgeStyle;rounded=0;orthogonalLoop=1;jettySize=auto;html=1;exitX=0.5;exitY=0.5;exitDx=0;exitDy=0;exitPerimeter=0;fontFamily=Georgia;" edge="1" parent="1" source="rfZ32k7XFtMw9jHrx5v--2" target="rfZ32k7XFtMw9jHrx5v--8">
          <mxGeometry relative="1" as="geometry" />
        </mxCell>
        <mxCell id="rfZ32k7XFtMw9jHrx5v--13" style="edgeStyle=orthogonalEdgeStyle;rounded=0;orthogonalLoop=1;jettySize=auto;html=1;exitX=0.5;exitY=0.5;exitDx=0;exitDy=0;exitPerimeter=0;entryX=0;entryY=0.5;entryDx=0;entryDy=0;fontFamily=Georgia;" edge="1" parent="1" source="rfZ32k7XFtMw9jHrx5v--2" target="rfZ32k7XFtMw9jHrx5v--7">
          <mxGeometry relative="1" as="geometry" />
        </mxCell>
        <mxCell id="rfZ32k7XFtMw9jHrx5v--2" value="&lt;div&gt;مهمان&lt;/div&gt;" style="shape=umlActor;verticalLabelPosition=bottom;verticalAlign=top;html=1;outlineConnect=0;fontFamily=Georgia;" vertex="1" parent="1">
          <mxGeometry x="40" y="280" width="30" height="60" as="geometry" />
        </mxCell>
        <mxCell id="rfZ32k7XFtMw9jHrx5v--4" value="&lt;div&gt;خدمات مهمان&lt;/div&gt;" style="text;html=1;strokeColor=none;fillColor=none;align=center;verticalAlign=middle;whiteSpace=wrap;rounded=0;fontFamily=Georgia;" vertex="1" parent="1">
          <mxGeometry x="300" y="50" width="120" height="30" as="geometry" />
        </mxCell>
        <mxCell id="rfZ32k7XFtMw9jHrx5v--19" style="edgeStyle=orthogonalEdgeStyle;rounded=0;orthogonalLoop=1;jettySize=auto;html=1;exitX=0.5;exitY=0.5;exitDx=0;exitDy=0;exitPerimeter=0;entryX=1;entryY=0.5;entryDx=0;entryDy=0;fontFamily=Georgia;" edge="1" parent="1" source="rfZ32k7XFtMw9jHrx5v--6" target="rfZ32k7XFtMw9jHrx5v--18">
          <mxGeometry relative="1" as="geometry" />
        </mxCell>
        <mxCell id="rfZ32k7XFtMw9jHrx5v--6" value="&lt;div&gt;مدیر&lt;/div&gt;" style="shape=umlActor;verticalLabelPosition=bottom;verticalAlign=top;html=1;outlineConnect=0;fontFamily=Georgia;" vertex="1" parent="1">
          <mxGeometry x="690" y="550" width="30" height="60" as="geometry" />
        </mxCell>
        <mxCell id="rfZ32k7XFtMw9jHrx5v--7" value="&lt;div&gt;ورود&lt;/div&gt;" style="ellipse;whiteSpace=wrap;html=1;fontFamily=Georgia;" vertex="1" parent="1">
          <mxGeometry x="290" y="120" width="120" height="80" as="geometry" />
        </mxCell>
        <mxCell id="rfZ32k7XFtMw9jHrx5v--17" style="edgeStyle=orthogonalEdgeStyle;rounded=0;orthogonalLoop=1;jettySize=auto;html=1;entryX=0;entryY=0.5;entryDx=0;entryDy=0;fontFamily=Georgia;" edge="1" parent="1" source="rfZ32k7XFtMw9jHrx5v--8" target="rfZ32k7XFtMw9jHrx5v--15">
          <mxGeometry relative="1" as="geometry" />
        </mxCell>
        <mxCell id="rfZ32k7XFtMw9jHrx5v--8" value="&lt;div&gt;ثبت نام&lt;/div&gt;" style="ellipse;whiteSpace=wrap;html=1;fontFamily=Georgia;" vertex="1" parent="1">
          <mxGeometry x="290" y="270" width="120" height="80" as="geometry" />
        </mxCell>
        <mxCell id="rfZ32k7XFtMw9jHrx5v--9" value="گذاشتن نظر در وبلاگ" style="ellipse;whiteSpace=wrap;html=1;fontFamily=Georgia;" vertex="1" parent="1">
          <mxGeometry x="290" y="430" width="120" height="80" as="geometry" />
        </mxCell>
        <mxCell id="rfZ32k7XFtMw9jHrx5v--15" value="سرویس ایمیل" style="rounded=0;whiteSpace=wrap;html=1;fontFamily=Georgia;" vertex="1" parent="1">
          <mxGeometry x="640" y="280" width="120" height="60" as="geometry" />
        </mxCell>
        <mxCell id="rfZ32k7XFtMw9jHrx5v--18" value="تایید یا حذف نظرات" style="ellipse;whiteSpace=wrap;html=1;fontFamily=Georgia;" vertex="1" parent="1">
          <mxGeometry x="290" y="540" width="120" height="80" as="geometry" />
        </mxCell>
        <mxCell id="rfZ32k7XFtMw9jHrx5v--25" value="&lt;div&gt;&lt;br&gt;&lt;/div&gt;" style="endArrow=none;dashed=1;html=1;dashPattern=1 3;strokeWidth=2;rounded=0;fontFamily=Georgia;entryX=0.5;entryY=1;entryDx=0;entryDy=0;exitX=0.5;exitY=0;exitDx=0;exitDy=0;" edge="1" parent="1" source="rfZ32k7XFtMw9jHrx5v--18" target="rfZ32k7XFtMw9jHrx5v--9">
          <mxGeometry width="50" height="50" relative="1" as="geometry">
            <mxPoint x="240" y="390" as="sourcePoint" />
            <mxPoint x="290" y="340" as="targetPoint" />
          </mxGeometry>
        </mxCell>
      </root>
    </mxGraphModel>
  </diagram>
</mxfile>
